<?xml version="1.0" encoding="utf-8"?>
<!DOCTYPE svg PUBLIC "-//W3C//DTD SVG 20010904//EN" "http://www.w3.org/TR/2001/REC-SVG-20010904/DTD/svg10.dtd">
<svg version="1.0" xmlns="http://www.w3.org/2000/svg" width="588px" height="265px" viewBox="0 0 588 265" preserveAspectRatio="xMidYMid meet">
 <g fill="#f3f0ed">
  <path d="M0 132.5 l0 -132.5 294 0 294 0 0 132.5 0 132.5 -294 0 -294 0 0 -132.5z"/>
 </g>
 <g fill="#9e2d0b">
  <path d="M233.4 187.9 c-4.6 -5.2 -0.9 -26 8.6 -48 3.7 -8.5 5.3 -15.8 3.1 -14.5 -1.1 0.7 -3.3 -1.8 -2.5 -2.7 0.4 -0.4 1.4 -3.9 2.4 -7.9 2.4 -10.2 4.3 -9.9 5 0.6 l0.5 8 2.8 -4.2 c3 -4.6 6.5 -6.1 10.3 -4.3 4.7 2.1 5.9 11.8 2.4 18.4 -4.1 7.5 4.7 2.8 10.1 -5.5 4.4 -6.8 4.8 -9.3 1.9 -10.1 -2.8 -0.7 -3.3 -2.9 -1.6 -7.1 2.5 -6 6.7 -5.8 8 0.4 0.5 2.5 1 3 3.5 3 5.1 0 6.3 2.2 5.5 10.6 -0.6 6.4 -0.4 7.7 1.1 9.4 3.7 4.1 8.1 1.5 14.4 -8.4 4 -6.3 7.3 -9.6 9.8 -9.6 2.1 0 1.5 2.8 -0.8 4 -2.7 1.5 -5.1 7.3 -4.3 10.4 1.4 5.7 8.7 7.8 12.7 3.7 l2.1 -2 -2.7 -2.1 c-5.2 -4.1 -5.7 -13.9 -0.8 -15.5 4.6 -1.4 8.1 3.1 8.1 10.6 0 3.3 0.3 3.9 2.1 3.9 3.6 0 5.8 -1.9 8.5 -7.3 3.4 -6.8 5.2 -8.7 8 -8.7 3.7 0 4.7 3.3 4 12.4 l-0.7 8.1 4.6 -7.7 c2.4 -4.2 5.5 -8.4 6.7 -9.2 5.4 -3.8 8.8 -0.3 8.8 8.9 l0 6 3.5 -6.2 c5.6 -9.7 10.3 -12.5 14.5 -8.3 1.7 1.7 2 3.3 2 10 0 9.1 0.8 10.2 5.9 7.6 1.9 -1 4.5 -4.2 7.1 -8.6 4.3 -7.4 7.9 -10.6 10.7 -9.6 1.3 0.6 1 1.2 -2 4 -3.2 2.9 -3.7 4 -3.7 7.8 0 3.2 0.6 5 2 6.3 2.6 2.4 7.8 2.2 10.4 -0.5 l2.1 -2.1 -2.3 -1.7 c-7.1 -5.5 -4.7 -19.2 2.7 -15.2 2.9 1.5 4.1 4.2 4.3 9.5 0.2 4.1 0.4 4.5 2.9 4.5 1.4 0 3.4 -0.9 4.4 -2 1.6 -1.8 1.8 -4.1 1.9 -19.5 l0.1 -17.4 -9.5 -0.3 c-7.7 -0.2 -9.5 -0.6 -9.5 -1.8 0 -1.2 1.9 -1.6 10.3 -1.8 9.7 -0.3 10.3 -0.4 11.2 -2.6 1.3 -3.4 3.8 -5.6 6.7 -5.6 2 0 2.8 0.8 4 4 l1.6 4 13.4 0 c12.3 0 13.4 0.2 13.1 1.8 -0.3 1.5 -1.9 1.7 -13.3 2 l-13.1 0.3 -1.2 7.8 c-1.1 7 -3.6 15.5 -7.3 24.6 -1 2.6 -0.9 3.7 0.6 6.9 4.7 9.8 10.9 7.8 17.5 -5.7 1.6 -3.2 3.6 -6.7 4.6 -7.8 3.7 -4.2 11.4 -0.9 11.4 4.9 0 3.4 -3.1 8.6 -6.6 10.8 -2.5 1.7 -2.5 1.8 -0.8 3.1 5.4 4 12.9 -0.3 17.5 -10.2 2.8 -5.7 2.8 -6 1 -6.3 -3.4 -0.6 -4.4 -2.6 -2.8 -6.4 0.8 -1.8 2.2 -4 3.2 -4.8 1.5 -1.3 1.9 -1.2 3.6 0.9 1.1 1.3 1.9 3.2 1.9 4.2 0 1.4 0.7 1.9 2.6 1.9 1.4 0 3.5 0.5 4.6 1.1 1.9 1 2 1.7 1.4 8.6 -0.8 8.2 0.7 12.3 4.3 12.3 2.7 0 7.7 -4.5 10.7 -9.6 2.6 -4.4 5.4 -5.8 5.4 -2.7 0 0.9 -1.4 3.8 -3.1 6.5 -5.2 8.1 -11.3 11.2 -16.7 8.4 -4 -2.1 -5.4 -6.4 -4.6 -14.3 l0.7 -6.3 -3 0 c-2.6 0 -3 0.5 -4 4.2 -1.6 5.7 -6.7 13.3 -10.7 15.8 -2 1.2 -5.1 2 -7.6 2 -3.4 0 -4.8 -0.6 -7.4 -3.3 -1.8 -1.7 -3.5 -3.9 -3.8 -4.7 -0.4 -1.1 -1.2 -0.7 -3.3 1.9 -3.4 3.9 -7.6 6 -11.1 5.3 -2.3 -0.4 -6.5 -4.6 -9 -8.8 -1.1 -1.8 -1.2 -1.8 -3.2 -0.1 -1.1 1 -3.9 2.1 -6.3 2.4 -2.9 0.4 -5 1.5 -6.8 3.5 -5 5.6 -15.1 4.5 -18 -2 l-1.2 -2.4 -2.1 2.7 c-2.8 3.6 -8 5.8 -11 4.6 -4.1 -1.6 -5 -3.6 -4.9 -11.5 0 -4.3 -0.4 -7.8 -1 -8.2 -1.8 -1.1 -5.6 3.5 -9.9 11.8 -6.7 12.8 -9.5 12 -9.1 -2.7 0.2 -8 0 -9.5 -1.3 -9.5 -1.6 0 -3.8 3.1 -9.8 13.5 -2.7 4.8 -3.9 6 -5.9 6 l-2.4 0 0.2 -10.7 c0.2 -6 -0.1 -10.8 -0.5 -10.8 -0.5 0 -1.9 2.2 -3.2 5 -3.2 6.8 -6.8 10 -12.1 10.7 -2.6 0.4 -4.9 1.4 -5.7 2.5 -1.8 2.5 -6.5 4.8 -9.9 4.8 -3.6 0 -8.9 -3.3 -9.8 -6 -0.7 -2.1 -0.9 -2.1 -4.6 1.6 -3.2 3.2 -4.7 3.9 -7.9 3.9 -2.8 0 -4.7 -0.7 -6.2 -2.3 -2 -2 -2.3 -3.2 -2.2 -10.7 l0.1 -8.5 -2.9 0 c-1.6 0 -2.8 0.5 -2.8 1.3 0 2.7 -5.9 13.4 -9.1 16.4 -4 3.8 -7.7 5.3 -12.7 5.3 -6.1 0 -13.1 -5.5 -10.5 -8.1 0.7 -0.7 1.6 -0.5 2.6 0.5 4.4 4.4 10 -0.8 9.5 -8.7 -0.6 -9.3 -4.9 -8.6 -10.7 1.7 -2.7 4.9 -2.9 6 -4 25.6 -1.1 21.6 -2.6 30.6 -5.8 34.9 -2.6 3.5 -7.2 4 -9.9 1z m8.3 -6.1 c1.6 -4.7 3.1 -17.6 3.6 -30.2 0.4 -9 0.3 -9.7 -1 -7.3 -4.7 9.1 -10.3 33.5 -8.9 39.1 1 4.1 4.7 3.2 6.3 -1.6z m234.7 -56 c0.9 -1.2 1.6 -3.5 1.6 -5 0 -2.3 -0.4 -2.8 -2.5 -2.8 -3 0 -4.5 2.6 -4.5 8 0 3.7 0.2 4 1.9 3 1.1 -0.5 2.7 -2 3.5 -3.2z m-147.9 -5.5 c-0.3 -1.3 -1.1 -2.3 -1.8 -2 -2 0.6 -2 3.6 0 6.5 l1.8 2.7 0.3 -2.4 c0.2 -1.2 0.1 -3.4 -0.3 -4.8z m100.5 6 c0 -2.3 -2.2 -8.3 -3 -8.3 -1.7 0 -1.5 5.7 0.2 7.8 1.2 1.3 2.8 1.6 2.8 0.5z m19.9 -17.2 c1.1 -4 2.3 -9.9 2.7 -13.2 l0.7 -5.9 -3 0 c-3.8 0 -4.3 2 -4.3 17.9 0.1 12.7 0.7 12.9 3.9 1.2z m3.1 -23.5 c0 -1.3 -1.3 -3.6 -2.1 -3.6 -0.4 0 -1.3 0.9 -1.9 2 -0.9 1.8 -0.8 2 1.5 2 1.4 0 2.5 -0.2 2.5 -0.4z"/>
  <path d="M66.4 136.7 c-3.5 -3.2 -3.8 -3.9 -4.2 -9.9 -0.4 -5.8 -0.2 -6.7 2.3 -9.6 3.2 -3.8 7.4 -4.3 10.5 -1.2 3.7 3.7 1.8 10.9 -4 15 -2.5 1.8 -2.8 2.5 -1.9 3.6 1.6 1.9 7.9 1.8 10.8 -0.2 3.5 -2.5 8.1 -10.4 8.1 -13.9 0 -3.3 2.4 -7.5 3.5 -6.3 0.4 0.4 0.8 4.1 0.9 8.2 0.1 5.8 0.6 8.1 2.1 10.2 1.2 1.5 2.5 2.8 3 2.8 1.9 0.2 7.5 -12.5 7.5 -16.9 0 -2.5 0.6 -4.8 1.5 -5.5 1.2 -1 1.8 -0.3 3.9 4.3 4.1 9.3 9.2 11 12.5 4.1 2.2 -4.7 5.2 -7.4 8.3 -7.4 3.3 0 6.8 3.1 6.8 6.1 0 3.4 -3 8.8 -6.2 11 -3.7 2.7 -2.2 4.9 3.2 4.9 5.3 0 9.2 -3.5 13.1 -11.8 4 -8.2 6.5 -11.2 9.6 -11.2 2.7 0 3.2 1.6 3.5 11.5 l0.3 7 3.2 -5.6 c3.4 -6.1 8.4 -10.9 11.3 -10.9 3.3 0 4.5 2.9 4.5 11.2 0 7.5 0.8 9.7 3.6 9.8 1.6 0 6.1 -4.5 8.3 -8.3 2.2 -3.9 2.3 -4.7 1.5 -11.2 -0.9 -6.4 -0.5 -20.5 0.7 -24.7 0.5 -1.5 -0.6 -1.8 -9.3 -2 -7.9 -0.2 -9.8 -0.6 -9.8 -1.8 0 -1.2 1.9 -1.6 10 -1.8 l10 -0.3 2 -3.7 c2.5 -4.6 6.5 -5.5 8.9 -2 0.9 1.2 1.6 3 1.6 4 0 1.6 1.4 1.8 13.8 2 11.4 0.3 13.7 0.6 13.7 1.8 0 1.2 -2.3 1.5 -13.2 1.8 l-13.2 0.3 -0.6 4.7 c-1.1 7.7 -4.5 20.3 -6.9 25.4 -2.2 4.7 -2.3 4.8 -0.5 8.7 0.9 2.2 2.9 4.7 4.4 5.7 2.5 1.6 2.7 1.6 5.3 -0.3 1.5 -1.1 3.7 -3.5 4.9 -5.4 4.5 -7 5 -7.5 6.3 -6.2 2.6 2.4 -7.2 16.1 -11.8 16.4 -5.5 0.4 -9.1 -1.6 -11.7 -6.5 l-1.8 -3.4 -4.6 5 c-5.4 5.8 -9.6 6.7 -13.4 2.9 -1.9 -1.9 -2.2 -3.1 -2 -9.6 0.3 -11.8 -2.3 -11.1 -10.1 3 -5 8.8 -6.7 10.3 -9 8 -1.1 -1.2 -1.3 -3.5 -0.9 -11.5 0.3 -5.5 0.3 -10 0 -10 -0.4 0 -2.4 3.5 -4.6 7.8 -5.2 10.3 -9.5 14.3 -15.9 15 -4.4 0.4 -5.2 0.1 -8.5 -2.8 -2.1 -1.8 -4 -4.2 -4.3 -5.5 -0.5 -1.9 -1.2 -2.2 -4.4 -2.1 -3.2 0 -4.6 -0.6 -7.5 -3.4 -3 -2.9 -3.5 -3.1 -3.5 -1.4 -0.1 2.9 -5.2 11.5 -8.2 13.8 l-2.8 2 -2.6 -2.5 c-1.4 -1.3 -3.2 -3.6 -4 -5.1 l-1.4 -2.7 -4.3 4.6 c-3.8 4 -5 4.6 -9.4 5 -4.7 0.5 -5.3 0.3 -8.9 -3z m5.6 -12.7 c1.5 -3.6 0.7 -6 -1.9 -6 -2.6 0 -4.1 2.9 -4.1 8 0 4 0 4 2.4 2.5 1.3 -0.9 2.9 -2.9 3.6 -4.5z m61 0 c1.5 -3.5 0.7 -6 -1.8 -6 -3 0 -4.2 2.1 -4.2 7.2 l0 4.8 2.4 -1.5 c1.3 -0.9 2.9 -2.9 3.6 -4.5z m68.9 -16.2 c1 -4 2.1 -9.7 2.5 -12.5 l0.7 -5.3 -3 0 c-3.5 0 -3.7 0.5 -4.6 11.7 -0.8 9.3 0.1 17.7 1.6 15 0.6 -0.9 1.8 -4.9 2.8 -8.9z m2.1 -23.8 c0 -2.3 -1 -2.6 -2.8 -0.8 -1.8 1.8 -1.5 2.8 0.8 2.8 1.3 0 2 -0.7 2 -2z"/>
 </g>
</svg>